<svg xmlns="http://www.w3.org/2000/svg" xmlns:xlink="http://www.w3.org/1999/xlink" xmlns:lucid="lucid" width="1551" height="623.5"><g transform="translate(-880 -387.9998430658386)" lucid:page-tab-id="0_0"><path d="M500 0h2000v1500H500z" fill="#fff"/><path d="M880.98 1009H879V748.47H881zm0-287.47H879V469H881z" stroke="#5e5e5e" stroke-width=".05" fill="#5e5e5e"/><path d="M880.98 1010H879v-1.03H881z" stroke="#5e5e5e" stroke-width=".05" fill="#5e5e5e"/><path d="M887.64 474.88h-15.28l7.64-12.92z" fill="#5e5e5e"/><path d="M889.35 475.85h-18.7l9.35-15.8zm-15.28-1.95h11.86L880 463.88z" stroke="#5e5e5e" stroke-width=".05" fill="#5e5e5e"/><use xlink:href="#a" transform="matrix(1,0,0,1,855.5604938271605,721.5333333333332) translate(0 17.955555555555552)"/><path d="M1040 786a6 6 0 0 1 6-6h508a6 6 0 0 1 6 6v168a6 6 0 0 1-6 6h-508a6 6 0 0 1-6-6z" stroke="#5e5e5e" stroke-width="3" fill="#f2f2ff"/><path d="M1080 801a6 6 0 0 1 6-6h28a6 6 0 0 1 6 6v138a6 6 0 0 1-6 6h-28a6 6 0 0 1-6-6z" stroke="#5e5e5e" stroke-width="3" fill="#c3f7c8"/><use xlink:href="#b" transform="matrix(-1.8369701987210297e-16,-1,1,-1.8369701987210297e-16,1085,940) translate(57.027777777777786 18.52222222222222)"/><path d="M1146.3 801a6 6 0 0 1 6-6h28a6 6 0 0 1 6 6v138a6 6 0 0 1-6 6h-28a6 6 0 0 1-6-6z" stroke="#5e5e5e" stroke-width="3" fill="#ffdda6"/><use xlink:href="#c" transform="matrix(-1.8369701987210297e-16,-1,1,-1.8369701987210297e-16,1151.290568951817,940) translate(40.105555555555576 18.52222222222222)"/><use xlink:href="#d" transform="matrix(-1.8369701987210297e-16,-1,1,-1.8369701987210297e-16,1151.290568951817,940) translate(69.88333333333334 18.52222222222222)"/><path d="M1122.5 870h21.3" stroke="#5e5e5e" stroke-width="2" fill="none"/><path d="M1122.53 870.98h-1.03V869h1.03zM1144.8 870.98h-1.03V869h1.02z" stroke="#5e5e5e" stroke-width=".05" fill="#5e5e5e"/><path d="M1212.58 801a6 6 0 0 1 6-6h28a6 6 0 0 1 6 6v138a6 6 0 0 1-6 6h-28a6 6 0 0 1-6-6z" stroke="#5e5e5e" stroke-width="3" fill="#ffd9d9"/><use xlink:href="#e" transform="matrix(-1.8369701987210297e-16,-1,1,-1.8369701987210297e-16,1217.581137903634,939.9999999999998) translate(34.81111111111113 18.52222222222222)"/><use xlink:href="#f" transform="matrix(-1.8369701987210297e-16,-1,1,-1.8369701987210297e-16,1217.581137903634,939.9999999999998) translate(56.7 18.52222222222222)"/><path d="M1188.8 870h21.28" stroke="#5e5e5e" stroke-width="2" fill="none"/><path d="M1188.82 870.98h-1.03V869h1.02zM1211.08 870.98h-1.02V869h1.02z" stroke="#5e5e5e" stroke-width=".05" fill="#5e5e5e"/><path d="M1298.87 870c0 5.52-4.47 10-10 10-5.52 0-10-4.48-10-10s4.48-10 10-10c5.53 0 10 4.48 10 10zm-20 0h20m-10-10v20" stroke="#5e5e5e" stroke-width="3" fill="#fff"/><path d="M1166.3 792.5a2.5 2.5 0 0 1 2.5-2.5h114.07a6 6 0 0 1 6 6v61.5" stroke="#5e5e5e" stroke-width="2" fill="none"/><path d="M1167.27 793.5h-1.95v-1.03h1.95zM1289.85 858.6l-.98-.1-.97.12v-1.16h1.95z" stroke="#5e5e5e" stroke-width=".05" fill="#5e5e5e"/><path d="M1255.08 870h21.28" stroke="#5e5e5e" stroke-width="2" fill="none"/><path d="M1255.1 870.98h-1.02V869h1.03zM1277.36 870.02l.15.96h-1.17V869h1.16z" stroke="#5e5e5e" stroke-width=".05" fill="#5e5e5e"/><path d="M1325.16 801a6 6 0 0 1 6-6h28a6 6 0 0 1 6 6v138a6 6 0 0 1-6 6h-28a6 6 0 0 1-6-6z" stroke="#5e5e5e" stroke-width="3" fill="#ffdda6"/><use xlink:href="#c" transform="matrix(-1.8369701987210297e-16,-1,1,-1.8369701987210297e-16,1330.162275807268,939.9999999999998) translate(40.105555555555576 18.52222222222222)"/><use xlink:href="#d" transform="matrix(-1.8369701987210297e-16,-1,1,-1.8369701987210297e-16,1330.162275807268,939.9999999999998) translate(69.88333333333334 18.52222222222222)"/><path d="M1301.38 870h21.28" stroke="#5e5e5e" stroke-width="2" fill="none"/><path d="M1301.4 870.98h-1.17l.16-.96-.14-1h1.15zM1323.66 870.98h-1.02v-1.95h1.02z" stroke="#5e5e5e" stroke-width=".05" fill="#5e5e5e"/><path d="M1391.45 801a6 6 0 0 1 6-6h28a6 6 0 0 1 6 6v138a6 6 0 0 1-6 6h-28a6 6 0 0 1-6-6z" stroke="#5e5e5e" stroke-width="3" fill="#cfe4ff"/><use xlink:href="#g" transform="matrix(-1.8369701987210297e-16,-1,1,-1.8369701987210297e-16,1396.452844759085,939.9999999999998) translate(58.66666666666667 18.52222222222222)"/><path d="M1367.66 870h21.3" stroke="#5e5e5e" stroke-width="2" fill="none"/><path d="M1367.7 870.98h-1.04V869h1.03zM1389.95 870.98h-1.02V869h1.02z" stroke="#5e5e5e" stroke-width=".05" fill="#5e5e5e"/><path d="M1457.74 801a6 6 0 0 1 6-6H1534a6 6 0 0 1 6 6v138a6 6 0 0 1-6 6h-70.26a6 6 0 0 1-6-6z" stroke="#5e5e5e" stroke-width="3" fill="#ffd6f5"/><use xlink:href="#h" transform="matrix(-1.8369701987210297e-16,-1,1,-1.8369701987210297e-16,1462.7434137109021,939.9999999999998) translate(56.0388888888889 40.67847222222222)"/><path d="M1433.95 870h21.3" stroke="#5e5e5e" stroke-width="2" fill="none"/><path d="M1433.98 870.98h-1.03V869h1.03zM1456.24 870.98h-1.02V869h1.02z" stroke="#5e5e5e" stroke-width=".05" fill="#5e5e5e"/><path d="M1617 786a6 6 0 0 1 6-6h508a6 6 0 0 1 6 6v168a6 6 0 0 1-6 6h-508a6 6 0 0 1-6-6z" stroke="#5e5e5e" stroke-width="3" fill="#f2f2ff"/><path d="M1657 801a6 6 0 0 1 6-6h28a6 6 0 0 1 6 6v138a6 6 0 0 1-6 6h-28a6 6 0 0 1-6-6z" stroke="#5e5e5e" stroke-width="3" fill="#c3f7c8"/><use xlink:href="#b" transform="matrix(-1.8369701987210297e-16,-1,1,-1.8369701987210297e-16,1662.0000999999993,939.9999999999998) translate(57.027777777777786 18.52222222222222)"/><path d="M1723.3 801a6 6 0 0 1 6-6h28a6 6 0 0 1 6 6v138a6 6 0 0 1-6 6h-28a6 6 0 0 1-6-6z" stroke="#5e5e5e" stroke-width="3" fill="#ffdda6"/><use xlink:href="#c" transform="matrix(-1.8369701987210297e-16,-1,1,-1.8369701987210297e-16,1728.2906689518163,939.9999999999998) translate(40.105555555555576 18.52222222222222)"/><use xlink:href="#d" transform="matrix(-1.8369701987210297e-16,-1,1,-1.8369701987210297e-16,1728.2906689518163,939.9999999999998) translate(69.88333333333334 18.52222222222222)"/><path d="M1699.5 870h21.3" stroke="#5e5e5e" stroke-width="2" fill="none"/><path d="M1699.53 870.98h-1.03V869h1.03zM1721.8 870.98h-1.03V869h1.02z" stroke="#5e5e5e" stroke-width=".05" fill="#5e5e5e"/><path d="M1789.58 801a6 6 0 0 1 6-6h28a6 6 0 0 1 6 6v138a6 6 0 0 1-6 6h-28a6 6 0 0 1-6-6z" stroke="#5e5e5e" stroke-width="3" fill="#ffd9d9"/><use xlink:href="#e" transform="matrix(-1.8369701987210297e-16,-1,1,-1.8369701987210297e-16,1794.5812379036333,939.9999999999998) translate(34.81111111111113 18.52222222222222)"/><use xlink:href="#f" transform="matrix(-1.8369701987210297e-16,-1,1,-1.8369701987210297e-16,1794.5812379036333,939.9999999999998) translate(56.7 18.52222222222222)"/><path d="M1765.8 870h21.28" stroke="#5e5e5e" stroke-width="2" fill="none"/><path d="M1765.82 870.98h-1.03V869h1.02zM1788.08 870.98h-1.02V869h1.02z" stroke="#5e5e5e" stroke-width=".05" fill="#5e5e5e"/><path d="M1875.87 870c0 5.52-4.47 10-10 10-5.52 0-10-4.48-10-10s4.48-10 10-10c5.53 0 10 4.48 10 10zm-20 0h20m-10-10v20" stroke="#5e5e5e" stroke-width="3" fill="#fff"/><path d="M1743.3 792.5a2.5 2.5 0 0 1 2.5-2.5h114.07a6 6 0 0 1 6 6v61.5" stroke="#5e5e5e" stroke-width="2" fill="none"/><path d="M1744.27 793.5h-1.95v-1.03h1.95zM1866.85 858.6l-.98-.1-.97.12v-1.16h1.95z" stroke="#5e5e5e" stroke-width=".05" fill="#5e5e5e"/><path d="M1832.08 870h21.28" stroke="#5e5e5e" stroke-width="2" fill="none"/><path d="M1832.1 870.98h-1.02V869h1.03zM1854.36 870.02l.15.96h-1.17V869h1.16z" stroke="#5e5e5e" stroke-width=".05" fill="#5e5e5e"/><path d="M1902.16 801a6 6 0 0 1 6-6h28a6 6 0 0 1 6 6v138a6 6 0 0 1-6 6h-28a6 6 0 0 1-6-6z" stroke="#5e5e5e" stroke-width="3" fill="#ffdda6"/><use xlink:href="#c" transform="matrix(-1.8369701987210297e-16,-1,1,-1.8369701987210297e-16,1907.1623758072674,939.9999999999998) translate(40.105555555555576 18.52222222222222)"/><use xlink:href="#d" transform="matrix(-1.8369701987210297e-16,-1,1,-1.8369701987210297e-16,1907.1623758072674,939.9999999999998) translate(69.88333333333334 18.52222222222222)"/><path d="M1878.38 870h21.28" stroke="#5e5e5e" stroke-width="2" fill="none"/><path d="M1878.4 870.98h-1.17l.16-.96-.14-1h1.15zM1900.66 870.98h-1.02v-1.95h1.02z" stroke="#5e5e5e" stroke-width=".05" fill="#5e5e5e"/><path d="M1968.45 801a6 6 0 0 1 6-6h28a6 6 0 0 1 6 6v138a6 6 0 0 1-6 6h-28a6 6 0 0 1-6-6z" stroke="#5e5e5e" stroke-width="3" fill="#cfe4ff"/><use xlink:href="#g" transform="matrix(-1.8369701987210297e-16,-1,1,-1.8369701987210297e-16,1973.4529447590844,939.9999999999998) translate(58.66666666666667 18.52222222222222)"/><path d="M1944.66 870h21.3" stroke="#5e5e5e" stroke-width="2" fill="none"/><path d="M1944.7 870.98h-1.04V869h1.03zM1966.95 870.98h-1.02V869h1.02z" stroke="#5e5e5e" stroke-width=".05" fill="#5e5e5e"/><path d="M2034.74 801a6 6 0 0 1 6-6H2111a6 6 0 0 1 6 6v138a6 6 0 0 1-6 6h-70.26a6 6 0 0 1-6-6z" stroke="#5e5e5e" stroke-width="3" fill="#ffd6f5"/><use xlink:href="#h" transform="matrix(-1.8369701987210297e-16,-1,1,-1.8369701987210297e-16,2039.7435137109014,939.9999999999998) translate(56.0388888888889 40.67847222222222)"/><path d="M2010.95 870h21.3" stroke="#5e5e5e" stroke-width="2" fill="none"/><path d="M2010.98 870.98h-1.03V869h1.03zM2033.24 870.98h-1.02V869h1.02z" stroke="#5e5e5e" stroke-width=".05" fill="#5e5e5e"/><path d="M2198.5 786a6 6 0 0 1 6-6h29.5a6 6 0 0 1 6 6v168a6 6 0 0 1-6 6h-29.5a6 6 0 0 1-6-6z" stroke="#5e5e5e" stroke-width="3" fill="#cfe4ff"/><use xlink:href="#i" transform="matrix(-1.8369701987210297e-16,-1,1,-1.8369701987210297e-16,2203.5000499999996,955) translate(43.488888888888916 19.02222222222222)"/><use xlink:href="#j" transform="matrix(-1.8369701987210297e-16,-1,1,-1.8369701987210297e-16,2203.5000499999996,955) translate(99.05555555555554 19.02222222222222)"/><path d="M2139.5 870h56.5" stroke="#5e5e5e" stroke-width="2" fill="none"/><path d="M2139.53 870.98h-1.03V869h1.03zM2197 870.98h-1.03V869h1.03z" stroke="#5e5e5e" stroke-width=".05" fill="#5e5e5e"/><path d="M2242.5 870h27.5" stroke="#5e5e5e" stroke-width="2" fill="none"/><path d="M2242.53 870.98h-1.03V869h1.03zM2271 870.98h-1.03V869h1.03z" stroke="#5e5e5e" stroke-width=".05" fill="#5e5e5e"/><path d="M2271 846a6 6 0 0 1 6-6h148a6 6 0 0 1 6 6v48a6 6 0 0 1-6 6h-148a6 6 0 0 1-6-6z" stroke="#000" stroke-opacity="0" stroke-width="3" fill="#d7faf5"/><use xlink:href="#k" transform="matrix(1,0,0,1,2276.0002999999983,845) translate(27.049999999999997 30.025)"/><use xlink:href="#l" transform="matrix(1,0,0,1,2276.0002999999983,845) translate(63.05 30.025)"/><use xlink:href="#m" transform="matrix(1,0,0,1,2276.0002999999983,845) translate(83.05 30.025)"/><use xlink:href="#n" transform="matrix(1,0,0,1,2276.0002999999983,845) translate(108 30.025)"/><path d="M1480.97 999h-1.94v-14.95h1.94zm0-36.55h-1.94V947.5h1.94z" stroke="#5e5e5e" stroke-width=".05" fill="#5e5e5e"/><path d="M1480.97 1000h-1.94v-1.03h1.94z" stroke="#5e5e5e" stroke-width=".05" fill="#5e5e5e"/><path d="M1480.97 947.53h-1.94v-1.03h1.94z" fill="#5e5e5e"/><path stroke="#5e5e5e" stroke-width=".05" fill="#5e5e5e"/><use xlink:href="#o" transform="matrix(1,0,0,1,1475,962.4499884305613) translate(0 14.4)"/><path d="M1520.97 999h-1.94v-14.95h1.94zm0-36.55h-1.94V947.5h1.94z" stroke="#5e5e5e" stroke-width=".05" fill="#5e5e5e"/><path d="M1520.97 1000h-1.94v-1.03h1.94z" stroke="#5e5e5e" stroke-width=".05" fill="#5e5e5e"/><path d="M1520.97 947.53h-1.94v-1.03h1.94z" fill="#5e5e5e"/><path stroke="#5e5e5e" stroke-width=".05" fill="#5e5e5e"/><use xlink:href="#p" transform="matrix(1,0,0,1,1515.5,962.4499599634794) translate(0 14.4)"/><path d="M2056.85 999h-1.95v-15.7h1.95zm0-37.3h-1.95V946h1.95z" stroke="#5e5e5e" stroke-width=".05" fill="#5e5e5e"/><path d="M2056.85 1000h-1.95v-1.03h1.95zM2056.85 946.03h-1.95V945h1.95z" stroke="#5e5e5e" stroke-width=".05" fill="#5e5e5e"/><use xlink:href="#o" transform="matrix(1,0,0,1,2050.8718068554504,961.700028467082) translate(0 14.4)"/><path d="M2096.85 999h-1.95v-15.7h1.95zm0-37.3h-1.95V946h1.95z" stroke="#5e5e5e" stroke-width=".05" fill="#5e5e5e"/><path d="M2096.85 1000h-1.95v-1.03h1.95zM2096.85 946.03h-1.95V945h1.95z" stroke="#5e5e5e" stroke-width=".05" fill="#5e5e5e"/><use xlink:href="#p" transform="matrix(1,0,0,1,2091.3718068554504,961.7) translate(0 14.4)"/><path d="M1040 506a6 6 0 0 1 6-6h508a6 6 0 0 1 6 6v168a6 6 0 0 1-6 6h-508a6 6 0 0 1-6-6z" stroke="#5e5e5e" stroke-width="3" fill="#f2f2ff"/><path d="M1080 521a6 6 0 0 1 6-6h28a6 6 0 0 1 6 6v138a6 6 0 0 1-6 6h-28a6 6 0 0 1-6-6z" stroke="#5e5e5e" stroke-width="3" fill="#c3f7c8"/><use xlink:href="#q" transform="matrix(-1.8369701987210297e-16,-1,1,-1.8369701987210297e-16,1085,660) translate(57.027777777777786 18.52222222222222)"/><path d="M1146.3 521a6 6 0 0 1 6-6h28a6 6 0 0 1 6 6v138a6 6 0 0 1-6 6h-28a6 6 0 0 1-6-6z" stroke="#5e5e5e" stroke-width="3" fill="#ffdda6"/><use xlink:href="#r" transform="matrix(-1.8369701987210297e-16,-1,1,-1.8369701987210297e-16,1151.290568951817,660) translate(40.105555555555576 18.52222222222222)"/><use xlink:href="#s" transform="matrix(-1.8369701987210297e-16,-1,1,-1.8369701987210297e-16,1151.290568951817,660) translate(69.88333333333334 18.52222222222222)"/><path d="M1122.5 590h21.3" stroke="#5e5e5e" stroke-width="2" fill="none"/><path d="M1122.53 590.98h-1.03V589h1.03zM1144.8 590.98h-1.03V589h1.02z" stroke="#5e5e5e" stroke-width=".05" fill="#5e5e5e"/><path d="M1212.58 521a6 6 0 0 1 6-6h28a6 6 0 0 1 6 6v138a6 6 0 0 1-6 6h-28a6 6 0 0 1-6-6z" stroke="#5e5e5e" stroke-width="3" fill="#ffd9d9"/><use xlink:href="#t" transform="matrix(-1.8369701987210297e-16,-1,1,-1.8369701987210297e-16,1217.581137903634,660) translate(34.81111111111113 18.52222222222222)"/><use xlink:href="#u" transform="matrix(-1.8369701987210297e-16,-1,1,-1.8369701987210297e-16,1217.581137903634,660) translate(56.7 18.52222222222222)"/><path d="M1188.8 590h21.28" stroke="#5e5e5e" stroke-width="2" fill="none"/><path d="M1188.82 590.98h-1.03V589h1.02zM1211.08 590.98h-1.02V589h1.02z" stroke="#5e5e5e" stroke-width=".05" fill="#5e5e5e"/><path d="M1298.87 590c0 5.52-4.47 10-10 10-5.52 0-10-4.48-10-10s4.48-10 10-10c5.53 0 10 4.48 10 10zm-20 0h20m-10-10v20" stroke="#5e5e5e" stroke-width="3" fill="#fff"/><path d="M1166.3 512.5a2.5 2.5 0 0 1 2.5-2.5h114.07a6 6 0 0 1 6 6v61.5" stroke="#5e5e5e" stroke-width="2" fill="none"/><path d="M1167.27 513.5h-1.95v-1.03h1.95zM1289.85 578.6l-.98-.1-.97.12v-1.16h1.95z" stroke="#5e5e5e" stroke-width=".05" fill="#5e5e5e"/><path d="M1255.08 590h21.28" stroke="#5e5e5e" stroke-width="2" fill="none"/><path d="M1255.1 590.98h-1.02V589h1.03zM1277.36 590.02l.15.96h-1.17V589h1.16z" stroke="#5e5e5e" stroke-width=".05" fill="#5e5e5e"/><path d="M1325.16 521a6 6 0 0 1 6-6h28a6 6 0 0 1 6 6v138a6 6 0 0 1-6 6h-28a6 6 0 0 1-6-6z" stroke="#5e5e5e" stroke-width="3" fill="#ffdda6"/><use xlink:href="#r" transform="matrix(-1.8369701987210297e-16,-1,1,-1.8369701987210297e-16,1330.162275807268,660) translate(40.105555555555576 18.52222222222222)"/><use xlink:href="#s" transform="matrix(-1.8369701987210297e-16,-1,1,-1.8369701987210297e-16,1330.162275807268,660) translate(69.88333333333334 18.52222222222222)"/><path d="M1301.38 590h21.28" stroke="#5e5e5e" stroke-width="2" fill="none"/><path d="M1301.4 590.98h-1.17l.16-.96-.14-1h1.15zM1323.66 590.98h-1.02v-1.95h1.02z" stroke="#5e5e5e" stroke-width=".05" fill="#5e5e5e"/><path d="M1391.45 521a6 6 0 0 1 6-6h28a6 6 0 0 1 6 6v138a6 6 0 0 1-6 6h-28a6 6 0 0 1-6-6z" stroke="#5e5e5e" stroke-width="3" fill="#cfe4ff"/><use xlink:href="#v" transform="matrix(-1.8369701987210297e-16,-1,1,-1.8369701987210297e-16,1396.452844759085,660) translate(58.66666666666667 18.52222222222222)"/><path d="M1367.66 590h21.3" stroke="#5e5e5e" stroke-width="2" fill="none"/><path d="M1367.7 590.98h-1.04V589h1.03zM1389.95 590.98h-1.02V589h1.02z" stroke="#5e5e5e" stroke-width=".05" fill="#5e5e5e"/><path d="M1457.74 521a6 6 0 0 1 6-6H1534a6 6 0 0 1 6 6v138a6 6 0 0 1-6 6h-70.26a6 6 0 0 1-6-6z" stroke="#5e5e5e" stroke-width="3" fill="#ffd6f5"/><use xlink:href="#w" transform="matrix(-1.8369701987210297e-16,-1,1,-1.8369701987210297e-16,1462.7434137109021,660) translate(56.0388888888889 40.67847222222222)"/><path d="M1433.95 590h21.3" stroke="#5e5e5e" stroke-width="2" fill="none"/><path d="M1433.98 590.98h-1.03V589h1.03zM1456.24 590.98h-1.02V589h1.02z" stroke="#5e5e5e" stroke-width=".05" fill="#5e5e5e"/><path d="M1617 506a6 6 0 0 1 6-6h508a6 6 0 0 1 6 6v168a6 6 0 0 1-6 6h-508a6 6 0 0 1-6-6z" stroke="#5e5e5e" stroke-width="3" fill="#f2f2ff"/><path d="M1657 521a6 6 0 0 1 6-6h28a6 6 0 0 1 6 6v138a6 6 0 0 1-6 6h-28a6 6 0 0 1-6-6z" stroke="#5e5e5e" stroke-width="3" fill="#c3f7c8"/><use xlink:href="#q" transform="matrix(-1.8369701987210297e-16,-1,1,-1.8369701987210297e-16,1662.0000999999993,660) translate(57.027777777777786 18.52222222222222)"/><path d="M1723.3 521a6 6 0 0 1 6-6h28a6 6 0 0 1 6 6v138a6 6 0 0 1-6 6h-28a6 6 0 0 1-6-6z" stroke="#5e5e5e" stroke-width="3" fill="#ffdda6"/><use xlink:href="#r" transform="matrix(-1.8369701987210297e-16,-1,1,-1.8369701987210297e-16,1728.2906689518163,659.9999999999995) translate(40.105555555555576 18.52222222222222)"/><use xlink:href="#s" transform="matrix(-1.8369701987210297e-16,-1,1,-1.8369701987210297e-16,1728.2906689518163,659.9999999999995) translate(69.88333333333334 18.52222222222222)"/><path d="M1699.5 590h21.3" stroke="#5e5e5e" stroke-width="2" fill="none"/><path d="M1699.53 590.98h-1.03V589h1.03zM1721.8 590.98h-1.03V589h1.02z" stroke="#5e5e5e" stroke-width=".05" fill="#5e5e5e"/><path d="M1789.58 521a6 6 0 0 1 6-6h28a6 6 0 0 1 6 6v138a6 6 0 0 1-6 6h-28a6 6 0 0 1-6-6z" stroke="#5e5e5e" stroke-width="3" fill="#ffd9d9"/><use xlink:href="#t" transform="matrix(-1.8369701987210297e-16,-1,1,-1.8369701987210297e-16,1794.5812379036333,660) translate(34.81111111111113 18.52222222222222)"/><use xlink:href="#u" transform="matrix(-1.8369701987210297e-16,-1,1,-1.8369701987210297e-16,1794.5812379036333,660) translate(56.7 18.52222222222222)"/><path d="M1765.8 590h21.28" stroke="#5e5e5e" stroke-width="2" fill="none"/><path d="M1765.82 590.98h-1.03V589h1.02zM1788.08 590.98h-1.02V589h1.02z" stroke="#5e5e5e" stroke-width=".05" fill="#5e5e5e"/><path d="M1875.87 590c0 5.52-4.47 10-10 10-5.52 0-10-4.48-10-10s4.48-10 10-10c5.53 0 10 4.48 10 10zm-20 0h20m-10-10v20" stroke="#5e5e5e" stroke-width="3" fill="#fff"/><path d="M1743.3 512.5a2.5 2.5 0 0 1 2.5-2.5h114.07a6 6 0 0 1 6 6v61.5" stroke="#5e5e5e" stroke-width="2" fill="none"/><path d="M1744.27 513.5h-1.95v-1.03h1.95zM1866.85 578.6l-.98-.1-.97.12v-1.16h1.95z" stroke="#5e5e5e" stroke-width=".05" fill="#5e5e5e"/><path d="M1832.08 590h21.28" stroke="#5e5e5e" stroke-width="2" fill="none"/><path d="M1832.1 590.98h-1.02V589h1.03zM1854.36 590.02l.15.96h-1.17V589h1.16z" stroke="#5e5e5e" stroke-width=".05" fill="#5e5e5e"/><path d="M1902.16 521a6 6 0 0 1 6-6h28a6 6 0 0 1 6 6v138a6 6 0 0 1-6 6h-28a6 6 0 0 1-6-6z" stroke="#5e5e5e" stroke-width="3" fill="#ffdda6"/><use xlink:href="#r" transform="matrix(-1.8369701987210297e-16,-1,1,-1.8369701987210297e-16,1907.1623758072674,660) translate(40.105555555555576 18.52222222222222)"/><use xlink:href="#s" transform="matrix(-1.8369701987210297e-16,-1,1,-1.8369701987210297e-16,1907.1623758072674,660) translate(69.88333333333334 18.52222222222222)"/><path d="M1878.38 590h21.28" stroke="#5e5e5e" stroke-width="2" fill="none"/><path d="M1878.4 590.98h-1.17l.16-.96-.14-1h1.15zM1900.66 590.98h-1.02v-1.95h1.02z" stroke="#5e5e5e" stroke-width=".05" fill="#5e5e5e"/><path d="M1968.45 521a6 6 0 0 1 6-6h28a6 6 0 0 1 6 6v138a6 6 0 0 1-6 6h-28a6 6 0 0 1-6-6z" stroke="#5e5e5e" stroke-width="3" fill="#cfe4ff"/><use xlink:href="#v" transform="matrix(-1.8369701987210297e-16,-1,1,-1.8369701987210297e-16,1973.4529447590844,659.9999999999995) translate(58.66666666666667 18.52222222222222)"/><path d="M1944.66 590h21.3" stroke="#5e5e5e" stroke-width="2" fill="none"/><path d="M1944.7 590.98h-1.04V589h1.03zM1966.95 590.98h-1.02V589h1.02z" stroke="#5e5e5e" stroke-width=".05" fill="#5e5e5e"/><path d="M2034.74 521a6 6 0 0 1 6-6H2111a6 6 0 0 1 6 6v138a6 6 0 0 1-6 6h-70.26a6 6 0 0 1-6-6z" stroke="#5e5e5e" stroke-width="3" fill="#ffd6f5"/><use xlink:href="#w" transform="matrix(-1.8369701987210297e-16,-1,1,-1.8369701987210297e-16,2039.7435137109014,659.9999999999995) translate(56.0388888888889 40.67847222222222)"/><path d="M2010.95 590h21.3" stroke="#5e5e5e" stroke-width="2" fill="none"/><path d="M2010.98 590.98h-1.03V589h1.03zM2033.24 590.98h-1.02V589h1.02z" stroke="#5e5e5e" stroke-width=".05" fill="#5e5e5e"/><path d="M2198.5 506a6 6 0 0 1 6-6h29.5a6 6 0 0 1 6 6v168a6 6 0 0 1-6 6h-29.5a6 6 0 0 1-6-6z" stroke="#5e5e5e" stroke-width="3" fill="#cfe4ff"/><use xlink:href="#x" transform="matrix(-1.8369701987210297e-16,-1,1,-1.8369701987210297e-16,2203.5000499999996,674.9999999999995) translate(43.488888888888916 19.02222222222222)"/><use xlink:href="#y" transform="matrix(-1.8369701987210297e-16,-1,1,-1.8369701987210297e-16,2203.5000499999996,674.9999999999995) translate(99.05555555555554 19.02222222222222)"/><path d="M2139.5 590h56.5" stroke="#5e5e5e" stroke-width="2" fill="none"/><path d="M2139.53 590.98h-1.03V589h1.03zM2197 590.98h-1.03V589h1.03z" stroke="#5e5e5e" stroke-width=".05" fill="#5e5e5e"/><path d="M2242.5 590h27.5" stroke="#5e5e5e" stroke-width="2" fill="none"/><path d="M2242.53 590.98h-1.03V589h1.03zM2271 590.98h-1.03V589h1.03z" stroke="#5e5e5e" stroke-width=".05" fill="#5e5e5e"/><path d="M2271 566a6 6 0 0 1 6-6h148a6 6 0 0 1 6 6v48a6 6 0 0 1-6 6h-148a6 6 0 0 1-6-6z" stroke="#000" stroke-opacity="0" stroke-width="3" fill="#d7faf5"/><use xlink:href="#k" transform="matrix(1,0,0,1,2276.0002999999983,565) translate(27.049999999999997 30.025)"/><use xlink:href="#l" transform="matrix(1,0,0,1,2276.0002999999983,565) translate(63.05 30.025)"/><use xlink:href="#m" transform="matrix(1,0,0,1,2276.0002999999983,565) translate(83.05 30.025)"/><use xlink:href="#n" transform="matrix(1,0,0,1,2276.0002999999983,565) translate(108 30.025)"/><path d="M1480.97 792.5h-1.94v-51.7h1.94zm0-73.3h-1.94v-51.7h1.94z" stroke="#5e5e5e" stroke-width=".05" fill="#5e5e5e"/><path d="M1480.97 793.5h-1.94v-1.03h1.94z" fill="#5e5e5e"/><path stroke="#5e5e5e" stroke-width=".05" fill="#5e5e5e"/><path d="M1480.97 667.53h-1.94v-1.03h1.94z" fill="#5e5e5e"/><path stroke="#5e5e5e" stroke-width=".05" fill="#5e5e5e"/><use xlink:href="#z" transform="matrix(1,0,0,1,1475,719.2000268611212) translate(0 14.4)"/><path d="M1520.97 792.5h-1.94v-51.7h1.94zm0-73.3h-1.94v-51.7h1.94z" stroke="#5e5e5e" stroke-width=".05" fill="#5e5e5e"/><path d="M1520.97 793.5h-1.94v-1.03h1.94z" fill="#5e5e5e"/><path stroke="#5e5e5e" stroke-width=".05" fill="#5e5e5e"/><path d="M1520.97 667.53h-1.94v-1.03h1.94z" fill="#5e5e5e"/><path stroke="#5e5e5e" stroke-width=".05" fill="#5e5e5e"/><use xlink:href="#A" transform="matrix(1,0,0,1,1515.5,719.199969926957) translate(0 14.4)"/><path d="M2056.85 792.5h-1.95v-52.45h1.95zm0-74.05h-1.95V666h1.95z" stroke="#5e5e5e" stroke-width=".05" fill="#5e5e5e"/><path d="M2056.85 793.5h-1.95v-1.03h1.95z" fill="#5e5e5e"/><path stroke="#5e5e5e" stroke-width=".05" fill="#5e5e5e"/><path d="M2056.85 666.03h-1.95V665h1.95z" stroke="#5e5e5e" stroke-width=".05" fill="#5e5e5e"/><use xlink:href="#z" transform="matrix(1,0,0,1,2050.8718068554504,718.4500677006221) translate(0 14.4)"/><path d="M2096.85 792.5h-1.95v-52.45h1.95zm0-74.05h-1.95V666h1.95z" stroke="#5e5e5e" stroke-width=".05" fill="#5e5e5e"/><path d="M2096.85 793.5h-1.95v-1.03h1.95z" fill="#5e5e5e"/><path stroke="#5e5e5e" stroke-width=".05" fill="#5e5e5e"/><path d="M2096.85 666.03h-1.95V665h1.95z" stroke="#5e5e5e" stroke-width=".05" fill="#5e5e5e"/><use xlink:href="#A" transform="matrix(1,0,0,1,2091.3718068554504,718.450010766458) translate(0 14.4)"/><path d="M2119.5 870h18" stroke="#5e5e5e" stroke-width="2" fill="none"/><path d="M2119.53 870.98h-1.03V869h1.03z" stroke="#5e5e5e" stroke-width=".05" fill="#5e5e5e"/><path d="M2137.47 870h1.03M2119.5 590h18" stroke="#5e5e5e" stroke-width="2" fill="none"/><path d="M2119.53 590.98h-1.03V589h1.03z" stroke="#5e5e5e" stroke-width=".05" fill="#5e5e5e"/><path d="M2137.47 590h1.03M1542.5 590h112" stroke="#5e5e5e" stroke-width="2" fill="none"/><path d="M1542.53 590.98h-1.03V589h1.03zM1655.5 590.98h-1.03V589h1.03z" stroke="#5e5e5e" stroke-width=".05" fill="#5e5e5e"/><path d="M1542.5 870h112" stroke="#5e5e5e" stroke-width="2" fill="none"/><path d="M1542.53 870.98h-1.03V869h1.03zM1655.5 870.98h-1.03V869h1.03zM1480.97 514h-1.94v-10.42h1.94zm0-20.83h-1.94v-20.84h1.94zm0-62.5h-1.94v-20.84h1.94zm0-31.25h-1.94V389h1.94z" stroke="#5e5e5e" stroke-width=".05" fill="#5e5e5e"/><path d="M1480.97 515h-1.94v-1.03h1.94zM1480.97 389.03h-1.94V388h1.94z" stroke="#5e5e5e" stroke-width=".05" fill="#5e5e5e"/><use xlink:href="#z" transform="matrix(1,0,0,1,1475,440.6999500000013) translate(0 14.4)"/><path d="M1520.97 514h-1.94v-10.42h1.94zm0-20.83h-1.94v-20.84h1.94zm0-62.5h-1.94v-20.84h1.94zm0-31.25h-1.94V389h1.94z" stroke="#5e5e5e" stroke-width=".05" fill="#5e5e5e"/><path d="M1520.97 515h-1.94v-1.03h1.94zM1520.97 389.02h-1.94V388h1.94z" stroke="#5e5e5e" stroke-width=".05" fill="#5e5e5e"/><g><use xlink:href="#A" transform="matrix(1,0,0,1,1515.5,440.6998930658371) translate(0 14.4)"/></g><path d="M2056.85 514h-1.95v-10.42h1.95zm0-20.83h-1.95v-20.84h1.95zm0-62.5h-1.95v-20.84h1.95zm0-31.25h-1.95V389h1.95z" stroke="#5e5e5e" stroke-width=".05" fill="#5e5e5e"/><path d="M2056.85 515h-1.95v-1.03h1.95zM2056.85 389.03h-1.95V388h1.95z" stroke="#5e5e5e" stroke-width=".05" fill="#5e5e5e"/><g><use xlink:href="#z" transform="matrix(1,0,0,1,2050.8718068554504,440.69995000000137) translate(0 14.4)"/></g><path d="M2096.85 514h-1.95v-10.42h1.95zm0-20.83h-1.95v-20.84h1.95zm0-62.5h-1.95v-20.84h1.95zm0-31.25h-1.95V389h1.95z" stroke="#5e5e5e" stroke-width=".05" fill="#5e5e5e"/><path d="M2096.85 515h-1.95v-1.03h1.95zM2096.85 389.02h-1.95V388h1.95z" stroke="#5e5e5e" stroke-width=".05" fill="#5e5e5e"/><g><use xlink:href="#A" transform="matrix(1,0,0,1,2091.3718068554504,440.6998930658372) translate(0 14.4)"/></g><path d="M920 456a6 6 0 0 1 6-6h28a6 6 0 0 1 6 6v268a6 6 0 0 1-6 6h-28a6 6 0 0 1-6-6z" stroke="#5e5e5e" stroke-width="3" fill="#fff"/><g><use xlink:href="#B" transform="matrix(-1.8369701987210297e-16,-1,1,-1.8369701987210297e-16,925.0000000000001,724.9999999999997) translate(60.44444444444444 23.919444444444444)"/><use xlink:href="#C" transform="matrix(-1.8369701987210297e-16,-1,1,-1.8369701987210297e-16,925.0000000000001,724.9999999999997) translate(133.2 23.919444444444444)"/><use xlink:href="#D" transform="matrix(-1.8369701987210297e-16,-1,1,-1.8369701987210297e-16,925.0000000000001,724.9999999999997) translate(158.86666666666667 23.919444444444444)"/><use xlink:href="#E" transform="matrix(-1.8369701987210297e-16,-1,1,-1.8369701987210297e-16,925.0000000000001,724.9999999999997) translate(176.7111111111111 23.919444444444444)"/><use xlink:href="#F" transform="matrix(-1.8369701987210297e-16,-1,1,-1.8369701987210297e-16,925.0000000000001,724.9999999999997) translate(196 23.919444444444444)"/></g><path d="M962.5 590h115" stroke="#5e5e5e" stroke-width="2" fill="none"/><path d="M962.53 590.98h-1.03V589h1.03zM1078.5 590.98h-1.03V589h1.03z" stroke="#5e5e5e" stroke-width=".05" fill="#5e5e5e"/><path d="M920 736a6 6 0 0 1 6-6h28a6 6 0 0 1 6 6v268a6 6 0 0 1-6 6h-28a6 6 0 0 1-6-6z" stroke="#5e5e5e" stroke-width="3" fill="#fff"/><g><use xlink:href="#B" transform="matrix(-1.8369701987210297e-16,-1,1,-1.8369701987210297e-16,925.0000000000001,1004.9999999999999) translate(79.73333333333332 23.919444444444444)"/><use xlink:href="#C" transform="matrix(-1.8369701987210297e-16,-1,1,-1.8369701987210297e-16,925.0000000000001,1004.9999999999999) translate(152.48888888888888 23.919444444444444)"/><use xlink:href="#G" transform="matrix(-1.8369701987210297e-16,-1,1,-1.8369701987210297e-16,925.0000000000001,1004.9999999999999) translate(178.15555555555557 23.919444444444444)"/></g><path d="M962.5 870h115" stroke="#5e5e5e" stroke-width="2" fill="none"/><path d="M962.53 870.98h-1.03V869h1.03zM1078.5 870.98h-1.03V869h1.03z" stroke="#5e5e5e" stroke-width=".05" fill="#5e5e5e"/><defs><path fill="#333" d="M127-220V0H93v-220H8v-28h204v28h-85" id="H"/><path fill="#333" d="M24-231v-30h32v30H24zM24 0v-190h32V0H24" id="I"/><path fill="#333" d="M210-169c-67 3-38 105-44 169h-31v-121c0-29-5-50-35-48C34-165 62-65 56 0H25l-1-190h30c1 10-1 24 2 32 10-44 99-50 107 0 11-21 27-35 58-36 85-2 47 119 55 194h-31v-121c0-29-5-49-35-48" id="J"/><path fill="#333" d="M100-194c63 0 86 42 84 106H49c0 40 14 67 53 68 26 1 43-12 49-29l28 8c-11 28-37 45-77 45C44 4 14-33 15-96c1-61 26-98 85-98zm52 81c6-60-76-77-97-28-3 7-6 17-6 28h103" id="K"/><g id="a"><use transform="matrix(0.06234567901234567,0,0,0.06234567901234567,0,0)" xlink:href="#H"/><use transform="matrix(0.06234567901234567,0,0,0.06234567901234567,12.843209876543208,0)" xlink:href="#I"/><use transform="matrix(0.06234567901234567,0,0,0.06234567901234567,17.768518518518515,0)" xlink:href="#J"/><use transform="matrix(0.06234567901234567,0,0,0.06234567901234567,36.40987654320987,0)" xlink:href="#K"/></g><path fill="#333" d="M49-355c0-228 122-371 351-371 102 0 185 35 240 87l-52 57c-44-40-106-67-185-68-174-3-262 122-262 295-1 171 88 297 260 294 84 0 152-36 197-80l54 59C596-25 507 18 398 17 170 15 49-128 49-355" id="L"/><path fill="#333" d="M305-523c165 3 256 102 256 267 0 164-91 270-256 270C141 14 52-92 50-256c-2-160 95-269 255-267zm0 68c-116 0-167 83-167 199S190-54 305-54c116 0 169-86 169-202 0-117-53-199-169-199" id="M"/><path fill="#333" d="M323-452c-91 0-152 70-152 160V0H86c-3-170 7-349-7-509h81c5 17 3 46 9 72 33-51 94-86 177-86 122 0 189 80 189 194V0h-85v-312c-1-82-40-140-127-140" id="N"/><path fill="#333" d="M293 0h-95L4-509h91L246-85h3l146-424h88" id="O"/><g id="b"><use transform="matrix(0.011111111111111105,0,0,0.011111111111111105,0,0)" xlink:href="#L"/><use transform="matrix(0.011111111111111105,0,0,0.011111111111111105,7.199999999999996,0)" xlink:href="#M"/><use transform="matrix(0.011111111111111105,0,0,0.011111111111111105,13.98888888888888,0)" xlink:href="#N"/><use transform="matrix(0.011111111111111105,0,0,0.011111111111111105,20.52222222222221,0)" xlink:href="#O"/></g><path fill="#333" d="M179-75h324V0H90v-708h89v633" id="P"/><path fill="#333" d="M206 14C109 15 40-41 42-139c1-169 156-177 340-175 7-97-33-143-126-142-54 0-105 14-153 43l-30-57c57-35 120-53 188-53 141 0 204 63 206 202 1 110-5 220 7 321h-78c-5-29-7-52-7-69h-3c-38 54-89 83-180 83zm22-67c89-2 148-53 154-135v-66s-251-9-252 110c0 59 38 91 98 91" id="Q"/><path fill="#333" d="M245 124c-31 80-63 130-160 133-26 0-50-4-71-12l17-63C159 220 168 89 202 3L4-509h92c50 139 97 282 150 419l136-419h87" id="R"/><path fill="#333" d="M288-523c162-3 241 129 226 299H136c6 100 61 171 167 170 70-1 110-20 156-50l38 55c-54 38-112 62-199 63C141 16 48-99 50-257c3-159 80-263 238-266zm145 233c-2-96-49-168-146-168-96 0-149 75-152 168h298" id="S"/><path fill="#333" d="M353-447c-118-18-182 64-182 174V0H86c-3-170 7-349-7-509h81c5 22 3 54 9 81 32-70 98-104 189-92" id="T"/><g id="c"><use transform="matrix(0.011111111111111105,0,0,0.011111111111111105,0,0)" xlink:href="#P"/><use transform="matrix(0.011111111111111105,0,0,0.011111111111111105,5.622222222222219,0)" xlink:href="#Q"/><use transform="matrix(0.011111111111111105,0,0,0.011111111111111105,11.399999999999993,0)" xlink:href="#R"/><use transform="matrix(0.011111111111111105,0,0,0.011111111111111105,16.58888888888888,0)" xlink:href="#S"/><use transform="matrix(0.011111111111111105,0,0,0.011111111111111105,22.86666666666666,0)" xlink:href="#T"/></g><path fill="#333" d="M90-708h102c138 196 274 394 414 588l-2-588h83V0H585C447-196 311-394 171-588l2 588H90v-708" id="U"/><path fill="#333" d="M315-453c-88 0-144 74-144 161V0H86c-3-170 7-349-7-509h81c5 17 3 46 9 72 30-48 90-86 168-86 89 0 140 43 168 103 32-60 90-104 179-103 122 1 187 78 187 197V0h-85v-314c-1-78-37-142-120-139-97 3-146 77-146 174V0h-85v-316c-1-77-39-137-120-137" id="V"/><g id="d"><use transform="matrix(0.011111111111111105,0,0,0.011111111111111105,0,0)" xlink:href="#U"/><use transform="matrix(0.011111111111111105,0,0,0.011111111111111105,8.622222222222216,0)" xlink:href="#M"/><use transform="matrix(0.011111111111111105,0,0,0.011111111111111105,15.411111111111099,0)" xlink:href="#T"/><use transform="matrix(0.011111111111111105,0,0,0.011111111111111105,19.45555555555554,0)" xlink:href="#V"/></g><path fill="#333" d="M519-192C526 49 168 67 30-66l45-56c53 42 105 63 193 64 90 1 164-42 161-131-3-108-85-124-177-151-113-33-191-67-197-195-9-210 320-235 451-122l-40 58c-51-32-98-52-175-53-81-1-152 34-149 111 4 95 69 103 160 131 125 38 213 72 217 218" id="W"/><path fill="#333" d="M172-708V0H87v-708h85" id="X"/><path fill="#333" d="M104-509c-11-136 44-213 171-213 33 0 62 4 89 13l-19 61c-85-20-162 3-156 97v42h128v65H189V0h-85v-444H15v-54" id="Y"/><g id="e"><use transform="matrix(0.011111111111111105,0,0,0.011111111111111105,0,0)" xlink:href="#W"/><use transform="matrix(0.011111111111111105,0,0,0.011111111111111105,6.211111111111108,0)" xlink:href="#S"/><use transform="matrix(0.011111111111111105,0,0,0.011111111111111105,12.488888888888882,0)" xlink:href="#X"/><use transform="matrix(0.011111111111111105,0,0,0.011111111111111105,15.355555555555547,0)" xlink:href="#Y"/></g><path fill="#333" d="M495-172H163L97 0H4l280-708h93L655 0h-96zm-307-69h282L329-624" id="Z"/><path fill="#333" d="M328 1C218 40 105-8 105-130v-314H15v-55l89-10v-125l86-30v155h135v65H190v307c-6 76 60 95 125 75" id="aa"/><path fill="#333" d="M172 0H87v-509h85V0zm-42-631c-37 0-55-19-56-52 0-36 19-54 56-54s55 18 55 54c-1 33-19 52-55 52" id="ab"/><g id="f"><use transform="matrix(0.011111111111111105,0,0,0.011111111111111105,0,0)" xlink:href="#Z"/><use transform="matrix(0.011111111111111105,0,0,0.011111111111111105,7.222222222222218,0)" xlink:href="#aa"/><use transform="matrix(0.011111111111111105,0,0,0.011111111111111105,11.188888888888883,0)" xlink:href="#aa"/><use transform="matrix(0.011111111111111105,0,0,0.011111111111111105,15.011111111111102,0)" xlink:href="#S"/><use transform="matrix(0.011111111111111105,0,0,0.011111111111111105,21.288888888888877,0)" xlink:href="#N"/><use transform="matrix(0.011111111111111105,0,0,0.011111111111111105,28.044444444444427,0)" xlink:href="#aa"/><use transform="matrix(0.011111111111111105,0,0,0.011111111111111105,32.01111111111109,0)" xlink:href="#ab"/><use transform="matrix(0.011111111111111105,0,0,0.011111111111111105,34.87777777777776,0)" xlink:href="#M"/><use transform="matrix(0.011111111111111105,0,0,0.011111111111111105,41.66666666666664,0)" xlink:href="#N"/></g><path fill="#333" d="M834 0h-87c-1-201 4-407 0-605L493 0h-67c-85-201-167-406-255-605l2 605H90v-708h131c81 196 158 395 241 589l240-589h132V0" id="ac"/><path fill="#333" d="M329-708c148 1 256 75 253 230-3 151-104 233-251 233H179V0H90v-708h239zm162 231c0-108-70-160-170-160H178v320h145c95 0 168-60 168-160" id="ad"/><g id="g"><use transform="matrix(0.011111111111111105,0,0,0.011111111111111105,0,0)" xlink:href="#ac"/><use transform="matrix(0.011111111111111105,0,0,0.011111111111111105,10.25555555555555,0)" xlink:href="#P"/><use transform="matrix(0.011111111111111105,0,0,0.011111111111111105,15.87777777777777,0)" xlink:href="#ad"/></g><path fill="#333" d="M540-633H317V0h-89v-633H4v-75h536v75" id="ae"/><g id="h"><use transform="matrix(0.011111111111111105,0,0,0.011111111111111105,0,0)" xlink:href="#P"/><use transform="matrix(0.011111111111111105,0,0,0.011111111111111105,5.511111111111108,0)" xlink:href="#W"/><use transform="matrix(0.011111111111111105,0,0,0.011111111111111105,11.611111111111104,0)" xlink:href="#ae"/><use transform="matrix(0.011111111111111105,0,0,0.011111111111111105,17.666666666666657,0)" xlink:href="#ac"/></g><path fill="#333" d="M50-253c3-155 81-270 235-270 68 0 123 22 166 66v-251h85v595c0 37 2 74 7 113h-79c-6-29-4-58-9-76-38 60-99 90-182 90C125 14 47-103 50-253zM292-54c94 1 159-71 159-165v-160c-36-45-79-74-154-75-104-1-159 92-159 201 0 111 50 197 154 199" id="af"/><path fill="#333" d="M50-255c-6-191 150-312 344-253 29 10 54 23 77 40l-34 59c-39-29-84-43-135-43-113-1-166 83-166 197 0 112 54 199 165 197 46 0 92-14 137-43l31 60C418-4 360 14 295 14 131 13 55-96 50-255" id="ag"/><g id="i"><use transform="matrix(0.011111111111111105,0,0,0.011111111111111105,0,0)" xlink:href="#ad"/><use transform="matrix(0.011111111111111105,0,0,0.011111111111111105,6.566666666666663,0)" xlink:href="#T"/><use transform="matrix(0.011111111111111105,0,0,0.011111111111111105,10.399999999999995,0)" xlink:href="#S"/><use transform="matrix(0.011111111111111105,0,0,0.011111111111111105,16.67777777777777,0)" xlink:href="#af"/><use transform="matrix(0.011111111111111105,0,0,0.011111111111111105,23.577777777777765,0)" xlink:href="#ab"/><use transform="matrix(0.011111111111111105,0,0,0.011111111111111105,26.44444444444443,0)" xlink:href="#ag"/><use transform="matrix(0.011111111111111105,0,0,0.011111111111111105,32.25555555555554,0)" xlink:href="#aa"/><use transform="matrix(0.011111111111111105,0,0,0.011111111111111105,36.2222222222222,0)" xlink:href="#ab"/><use transform="matrix(0.011111111111111105,0,0,0.011111111111111105,39.08888888888887,0)" xlink:href="#M"/><use transform="matrix(0.011111111111111105,0,0,0.011111111111111105,45.87777777777775,0)" xlink:href="#N"/></g><path fill="#333" d="M650 0h-89v-329H179V0H90v-708h89v307h382v-307h89V0" id="ah"/><g id="j"><use transform="matrix(0.011111111111111105,0,0,0.011111111111111105,0,0)" xlink:href="#ah"/><use transform="matrix(0.011111111111111105,0,0,0.011111111111111105,8.211111111111107,0)" xlink:href="#S"/><use transform="matrix(0.011111111111111105,0,0,0.011111111111111105,14.48888888888888,0)" xlink:href="#Q"/><use transform="matrix(0.011111111111111105,0,0,0.011111111111111105,20.555555555555543,0)" xlink:href="#af"/></g><path fill="#333" d="M30 0v-248h187v28H63v79h144v27H63v87h162V0H30" id="ai"/><path fill="#333" d="M179-190L93 31C79 59 56 82 12 73V49c39 6 53-20 64-50L1-190h34L92-34l54-156h33" id="aj"/><g id="k"><use transform="matrix(0.05,0,0,0.05,0,0)" xlink:href="#ai"/><use transform="matrix(0.05,0,0,0.05,12,0)" xlink:href="#aj"/><use transform="matrix(0.05,0,0,0.05,21,0)" xlink:href="#K"/></g><path fill="#333" d="M141-36C126-15 110 5 73 4 37 3 15-17 15-53c-1-64 63-63 125-63 3-35-9-54-41-54-24 1-41 7-42 31l-33-3c5-37 33-52 76-52 45 0 72 20 72 64v82c-1 20 7 32 28 27v20c-31 9-61-2-59-35zM48-53c0 20 12 33 32 33 41-3 63-29 60-74-43 2-92-5-92 41" id="ak"/><path fill="#333" d="M59-47c-2 24 18 29 38 22v24C64 9 27 4 27-40v-127H5v-23h24l9-43h21v43h35v23H59v120" id="al"/><g id="l"><use transform="matrix(0.05,0,0,0.05,0,0)" xlink:href="#ak"/><use transform="matrix(0.05,0,0,0.05,10,0)" xlink:href="#al"/></g><path fill="#333" d="M87 75C49 33 22-17 22-94c0-76 28-126 65-167h31c-38 41-64 92-64 168S80 34 118 75H87" id="am"/><path fill="#333" d="M141 0L90-78 38 0H4l68-98-65-92h35l48 74 47-74h35l-64 92 68 98h-35" id="an"/><path fill="#333" d="M68-38c1 34 0 65-14 84H32c9-13 17-26 17-46H33v-38h35" id="ao"/><g id="m"><use transform="matrix(0.05,0,0,0.05,0,0)" xlink:href="#am"/><use transform="matrix(0.05,0,0,0.05,5.95,0)" xlink:href="#an"/><use transform="matrix(0.05,0,0,0.05,14.949999999999998,0)" xlink:href="#ao"/></g><path fill="#333" d="M33-261c38 41 65 92 65 168S71 34 33 75H2C39 34 66-17 66-93S39-220 2-261h31" id="ap"/><g id="n"><use transform="matrix(0.05,0,0,0.05,0,0)" xlink:href="#aj"/><use transform="matrix(0.05,0,0,0.05,9,0)" xlink:href="#ap"/></g><path fill="#333" d="M106-169C34-169 62-67 57 0H25v-261h32l-1 103c12-21 28-36 61-36 89 0 53 116 60 194h-32v-121c2-32-8-49-39-48" id="aq"/><use transform="matrix(0.05,0,0,0.05,0,0)" xlink:href="#aq" id="o"/><path fill="#333" d="M96-169c-40 0-48 33-48 73s9 75 48 75c24 0 41-14 43-38l32 2c-6 37-31 61-74 61-59 0-76-41-82-99-10-93 101-131 147-64 4 7 5 14 7 22l-32 3c-4-21-16-35-41-35" id="ar"/><use transform="matrix(0.05,0,0,0.05,0,0)" xlink:href="#ar" id="p"/><g id="q"><use transform="matrix(0.011111111111111105,0,0,0.011111111111111105,0,0)" xlink:href="#L"/><use transform="matrix(0.011111111111111105,0,0,0.011111111111111105,7.199999999999996,0)" xlink:href="#M"/><use transform="matrix(0.011111111111111105,0,0,0.011111111111111105,13.98888888888888,0)" xlink:href="#N"/><use transform="matrix(0.011111111111111105,0,0,0.011111111111111105,20.52222222222221,0)" xlink:href="#O"/></g><g id="r"><use transform="matrix(0.011111111111111105,0,0,0.011111111111111105,0,0)" xlink:href="#P"/><use transform="matrix(0.011111111111111105,0,0,0.011111111111111105,5.622222222222219,0)" xlink:href="#Q"/><use transform="matrix(0.011111111111111105,0,0,0.011111111111111105,11.399999999999993,0)" xlink:href="#R"/><use transform="matrix(0.011111111111111105,0,0,0.011111111111111105,16.58888888888888,0)" xlink:href="#S"/><use transform="matrix(0.011111111111111105,0,0,0.011111111111111105,22.86666666666666,0)" xlink:href="#T"/></g><g id="s"><use transform="matrix(0.011111111111111105,0,0,0.011111111111111105,0,0)" xlink:href="#U"/><use transform="matrix(0.011111111111111105,0,0,0.011111111111111105,8.622222222222216,0)" xlink:href="#M"/><use transform="matrix(0.011111111111111105,0,0,0.011111111111111105,15.411111111111099,0)" xlink:href="#T"/><use transform="matrix(0.011111111111111105,0,0,0.011111111111111105,19.45555555555554,0)" xlink:href="#V"/></g><g id="t"><use transform="matrix(0.011111111111111105,0,0,0.011111111111111105,0,0)" xlink:href="#W"/><use transform="matrix(0.011111111111111105,0,0,0.011111111111111105,6.211111111111108,0)" xlink:href="#S"/><use transform="matrix(0.011111111111111105,0,0,0.011111111111111105,12.488888888888882,0)" xlink:href="#X"/><use transform="matrix(0.011111111111111105,0,0,0.011111111111111105,15.355555555555547,0)" xlink:href="#Y"/></g><g id="u"><use transform="matrix(0.011111111111111105,0,0,0.011111111111111105,0,0)" xlink:href="#Z"/><use transform="matrix(0.011111111111111105,0,0,0.011111111111111105,7.222222222222218,0)" xlink:href="#aa"/><use transform="matrix(0.011111111111111105,0,0,0.011111111111111105,11.188888888888883,0)" xlink:href="#aa"/><use transform="matrix(0.011111111111111105,0,0,0.011111111111111105,15.011111111111102,0)" xlink:href="#S"/><use transform="matrix(0.011111111111111105,0,0,0.011111111111111105,21.288888888888877,0)" xlink:href="#N"/><use transform="matrix(0.011111111111111105,0,0,0.011111111111111105,28.044444444444427,0)" xlink:href="#aa"/><use transform="matrix(0.011111111111111105,0,0,0.011111111111111105,32.01111111111109,0)" xlink:href="#ab"/><use transform="matrix(0.011111111111111105,0,0,0.011111111111111105,34.87777777777776,0)" xlink:href="#M"/><use transform="matrix(0.011111111111111105,0,0,0.011111111111111105,41.66666666666664,0)" xlink:href="#N"/></g><g id="v"><use transform="matrix(0.011111111111111105,0,0,0.011111111111111105,0,0)" xlink:href="#ac"/><use transform="matrix(0.011111111111111105,0,0,0.011111111111111105,10.25555555555555,0)" xlink:href="#P"/><use transform="matrix(0.011111111111111105,0,0,0.011111111111111105,15.87777777777777,0)" xlink:href="#ad"/></g><g id="w"><use transform="matrix(0.011111111111111105,0,0,0.011111111111111105,0,0)" xlink:href="#P"/><use transform="matrix(0.011111111111111105,0,0,0.011111111111111105,5.511111111111108,0)" xlink:href="#W"/><use transform="matrix(0.011111111111111105,0,0,0.011111111111111105,11.611111111111104,0)" xlink:href="#ae"/><use transform="matrix(0.011111111111111105,0,0,0.011111111111111105,17.666666666666657,0)" xlink:href="#ac"/></g><g id="x"><use transform="matrix(0.011111111111111105,0,0,0.011111111111111105,0,0)" xlink:href="#ad"/><use transform="matrix(0.011111111111111105,0,0,0.011111111111111105,6.566666666666663,0)" xlink:href="#T"/><use transform="matrix(0.011111111111111105,0,0,0.011111111111111105,10.399999999999995,0)" xlink:href="#S"/><use transform="matrix(0.011111111111111105,0,0,0.011111111111111105,16.67777777777777,0)" xlink:href="#af"/><use transform="matrix(0.011111111111111105,0,0,0.011111111111111105,23.577777777777765,0)" xlink:href="#ab"/><use transform="matrix(0.011111111111111105,0,0,0.011111111111111105,26.44444444444443,0)" xlink:href="#ag"/><use transform="matrix(0.011111111111111105,0,0,0.011111111111111105,32.25555555555554,0)" xlink:href="#aa"/><use transform="matrix(0.011111111111111105,0,0,0.011111111111111105,36.2222222222222,0)" xlink:href="#ab"/><use transform="matrix(0.011111111111111105,0,0,0.011111111111111105,39.08888888888887,0)" xlink:href="#M"/><use transform="matrix(0.011111111111111105,0,0,0.011111111111111105,45.87777777777775,0)" xlink:href="#N"/></g><g id="y"><use transform="matrix(0.011111111111111105,0,0,0.011111111111111105,0,0)" xlink:href="#ah"/><use transform="matrix(0.011111111111111105,0,0,0.011111111111111105,8.211111111111107,0)" xlink:href="#S"/><use transform="matrix(0.011111111111111105,0,0,0.011111111111111105,14.48888888888888,0)" xlink:href="#Q"/><use transform="matrix(0.011111111111111105,0,0,0.011111111111111105,20.555555555555543,0)" xlink:href="#af"/></g><use transform="matrix(0.05,0,0,0.05,0,0)" xlink:href="#aq" id="z"/><use transform="matrix(0.05,0,0,0.05,0,0)" xlink:href="#ar" id="A"/><path fill="#333" d="M519-637H178v238h297v68H178v258h358V0H90v-708h429v71" id="as"/><path fill="#333" d="M41-381c-4-162 252-177 353-88l-38 53c-39-27-82-41-128-41-98 0-143 107-54 139 97 35 229 46 229 174C403 35 133 53 25-45l39-53c42 28 78 41 142 45 80 4 134-58 99-129-26-31-59-35-113-51-89-25-148-50-151-148" id="at"/><g id="B"><use transform="matrix(0.022222222222222223,0,0,0.022222222222222223,0,0)" xlink:href="#as"/><use transform="matrix(0.022222222222222223,0,0,0.022222222222222223,12.511111111111111,0)" xlink:href="#O"/><use transform="matrix(0.022222222222222223,0,0,0.022222222222222223,23.2,0)" xlink:href="#S"/><use transform="matrix(0.022222222222222223,0,0,0.022222222222222223,35.75555555555556,0)" xlink:href="#N"/><use transform="matrix(0.022222222222222223,0,0,0.022222222222222223,49.266666666666666,0)" xlink:href="#aa"/><use transform="matrix(0.022222222222222223,0,0,0.022222222222222223,57.2,0)" xlink:href="#at"/></g><g id="C"><use transform="matrix(0.022222222222222223,0,0,0.022222222222222223,0,0)" xlink:href="#Q"/><use transform="matrix(0.022222222222222223,0,0,0.022222222222222223,12.000000000000004,0)" xlink:href="#aa"/></g><use transform="matrix(0.022222222222222223,0,0,0.022222222222222223,0,0)" xlink:href="#ae" id="D"/><path fill="#333" d="M505-253H342v166h-74v-166H105v-69h163v-165h74v165h163v69" id="au"/><use transform="matrix(0.022222222222222223,0,0,0.022222222222222223,0,0)" xlink:href="#au" id="E"/><path fill="#333" d="M539-74V0H105v-73h192v-544l-191 99-35-64 236-126h78v634h154" id="av"/><use transform="matrix(0.022222222222222223,0,0,0.022222222222222223,0,0)" xlink:href="#av" id="F"/><use transform="matrix(0.022222222222222223,0,0,0.022222222222222223,0,0)" xlink:href="#ae" id="G"/></defs></g></svg>